<?xml version="1.0" encoding="UTF-8"?>
<svg id="Layer_2" data-name="Layer 2" xmlns="http://www.w3.org/2000/svg" viewBox="0 0 512 511.02">
  <defs>
    <style>
      .cls-1 {
        fill: #4c65fc;
      }
    </style>
  </defs>
  <g id="Layer_1-2" data-name="Layer 1">
    <path class="cls-1" d="M419.5,0c1.67,1.31,4.45.63,6.16,1.01.41.09.16.98,1.07,1.05,1.41.11,2.78-.67,4.04-.61.93.04-.23.56,2.23.56,1.54,0,2.36.38,3.5.5-.39,1.59,1.94,1.49,1.5,0,.32.04.68-.05,1,0,.5,2.7,2.14,1.45,3.18,1.65.95.19,2.34.57,3.32.85.91.25,2.49.28,3,1,.11.16-.13.87,0,1,.36.35.94-.49,1-.5.16-.03.34.01.5,0,.53,1.53,1.46,1.2,2.5,1.5,23.76,6.76,46.89,36.57,54.23,59.52,2.61,8.16,3.51,16.63,5.27,24.98v330.5c-1.5,7.94-2.7,15.73-5.27,23.48-9.52,28.72-37.96,57.88-68.23,62.02-2.66.36-1.03.67-1.5,1-.2.14-2.78-.05-3.5,0-.58.04-1.08,0-1.5.5-2.55-.1-6.5,1-9.23,1.02H86.73c-44.34-3.39-82.47-41.19-85.84-85.61-.06-.82-.31-2.29-.88-2.91V98c1.1-2.1.85-4.75,1-7C4.21,42.77,43.09,3.17,91.2.46l.8-.46h327.5ZM249,81c-.83-.03-1.67.02-2.5,0-1.08-.02-2.83-.34-3.5.5-1.27-.08-2.73-.06-4,0s-2.31-.5-2,1c-1.82.08-3.68-.11-5.5,0-.59.04-1.09-.03-1.5.5-.68,0-3.09.37-4,.5-.86.12-.94.49-1,.5-5.71.92-15.22,3.45-20.63,5.53-30.72,11.82-54.15,30.18-75.37,56.97-2.47-.25-1.79,1.28-2,2-.19.65.02.63-.5,1.5h-1.5c-.17.45.5.92.5,1,0,.26-.43.69-.5,1l-3.37,3.12c-.4.66-.02,1.66-.13,2.38-.58.28-1.3.11-1.78,1.02-.53,1,.29,1.4.28,1.48-.09,1.02-.38,1.08-.5,1.5l-1.5-.5v2.5c-.16.18-.41.74-.5,1-2.69-.03-1.9,3.41-2.29,4.02-.79,1.23-.66-.39-1.21,2.48-.22.1-.65-.05-1,.24-.63.52-2.57,4.55-.5,3.76-.16.42-.35.68-.5,1-1.58-.43-2.05.8-1.99,2.21.02.42.49.72.49.79,0,.17,0,.33,0,.5-2.22.64-3.03,3.98-3.71,6.04-.32.98-.84,1.65.71,1.46-.16.42-.41.75-.5,1-1.75-.64-2.4,2.81-2.78,3.97-.36,1.09-1.27,3.44-1.42,4.02-.29,1.12.18,3.53.04,4.3-.11.59-1.25.51-1.38,1.06-.22.94.53,3.15.53,4.15,0,.5.02,1,0,1.5-1.2-.48-1.54,1.94-1.53,2.79,0,.71.52,1.14.53,1.21.01.33-.03.67,0,1-1.44-.41-1.07,1.2-1,2.5.03.5-.02,1,0,1.5-.81,2.34-1.67,5.67-.5,8-.05.98-.04,2.02,0,3-1.41,2.35-.08,5.12.5,7.5.7,2.87.95,3.65,2.59,6.17,2.77,4.27,8.87,10.38,14.14,10.85,10,.89,18.06.83,24.68-7.36s5.76-14.79,7.72-24.28c5.22-25.25,19.92-47.06,39.36-63.39,1.81.25,3.15-.55,3-2.5.15-.05.35.04.5,0,1.63-.46,2.69.36,3-2.5.16-.03.34.02.5,0,1.78-.26,2.15.64,2.5-2,.16-.04.35.04.5,0,1.5-.43,3.89-.07,3.5-2.5.16-.04.35.04.5,0,2.57-.72,5.9-2.09,8.36-3.39.85-.45,1.47-.63.64-1.61.29-.12.61-.34,1-.5,1.7,1.76,2.97-.28,3.14-.34,1.18-.41,2.88.32,2.86-1.66.17,0,.33,0,.5,0,1.16-.05,3.49,1.12,3-1.5.17,0,.33.01.5,0,.06,0,.43.56,1.17.5s4.38-.91,3.83-2c.17,0,.33,0,.5,0,.09,0,.7.6,1.7.54,1.06-.06,3.71-.78,5.05-1.05,1.44-.3.57-.92.75-1.99.3-.06.69.05,1,0-.45,2.1,5.18,1.01,5-1,1.15-.09,2.34.03,3.5,0,.25,0,.71,0,1,0,.49-.01,1.01.05,1.5,0,.72-.07,1.42.16,2-.5,3.41.24,8.07.2,11.5,0,.96.88,2.33.41,3.5.5.33.03.67,0,1,0,.66.01,1.38,0,2,0,.83,0,1.67-.03,2.5,0-.31,1.5.74.94,2,1,.77.04,3.81-.13,4,0,.33.24-.86.78,1,1,.65.08,1.36-.09,2,0,.06,0,.14.38,1,.5.69.1,2.77-.16,3,0,.34.24-.88.76,1,1,1.21.15,10.11,2.61,10.5,3,.09.09-.06.71,0,1,.45.18.92-.5,1-.5,1.79.1,13.34,6.25,15.66,7.59,4.59,2.66,7.44,4.63,10.84,8.41-1.64.65-2.85,1.98-3.98,3.27-3.78,4.29-7.53,9.84-11.01,14.49-10.59,14.15-20.38,29.07-30.3,43.7-5.94,8.77-13.22,17.59-17.71,27.04-.06.14.06.36,0,.5-1.87.24-2.52,2.55-4.37,2.92-.64.13-6.12-.45-6.62-.68-.4-.18-5.93-5.35-6.51-5.99-1.51-1.71-2.29-4.56-3.49-6.01s-3.93-3.2-5.5-5c-3.4-3.89-7.64-11.45-11.06-14.44-1.08-.94-2.51-1.18-3.48-2.02-1.23-1.05-1.79-2.83-3.53-3.97-1.57-1.03-4.1-1.81-5.94-2.31-.4-.34-.85-.38-1-.5-2.67-2.14-5.08-2.53-8.5-2.5-.33,0-.67,0-1,0-2.02.03-7.99.2-9.73.52-1.56.29-3.33,2.43-5,3-4.34,1.51-2.83.08-6.81,3.19-8.66,6.78-11.49,15.96-12.99,26.51-1.97,13.83,12.52,27.37,20.51,37.04,1.82,2.2,3.24,4.82,4.65,7.1.21.34,3.54,2.9,4.38,3.87,7.73,8.98,14.84,20.05,24.27,26.73,2.85,2.02,6.42,11.02,8.68,13.82.34.42,7.48,6.22,8.28,6.72,2.28,1.42,12.22,5.37,14.76,5.49.82.04,1.68.02,2.5,0,1.83.84,5.13.85,7,0,.8.02,1.71.07,2.5,0,.99-.08,2.97-.36,2.5-1.5,1.3-.23,3.29-.61,4.5-1,4.08-1.32,4.56-3.26,7.54-5.71.48-.39,1.57-.25,2.23-.77,3.33-2.57,4.17-5.65,6.21-8.66,14.38-21.28,27.58-43.85,42.3-64.82,9.44-13.45,18.74-25.2,28.73-38.27l4.99-4.76c1.74,8.11,4.46,22.19,9.09,28.66,3.14,4.39,6.97,5.23,9.41,7.84.1.1-.15.82.02.99.31.33.92-.5.98-.49.67.05,1.34.42,2,.5-.64,1.13,2.23,1.43,3.27,1.43.41,0,.67-.43.73-.43,2.16,0,4.34.01,6.5,0,1.94,0,1.43.51,4-.5,9.42-3.68,17.33-13.78,18.02-24.23.93-14.04-9.06-45.71-16.02-58.27,2.19-.21,2.5-2.71,3.14-3.36.31-.31,1.28-.28,1.88-.86,2.89-2.77,6.36-5.97,8.47-9.29.72-.69,3.18-3.3,3.5-4,.98.01,1.39-.67,2.01-1.24,7.7-7.08,14.14-19.37,14.01-29.98-.07-6.15-5.37-18.89-9.75-23.3-3.6-3.62-5.1-4.78-8.57-8.93-1.67-2-9.52-6.24-12-6.55-1.16-.14-9.59,1.22-10.67,1.79-2.02,1.06-4.81,5.31-6.71,7.04s-4.7,3.36-6.34,4.91c-6.47,6.11-13.01,14.37-19.72,19.78-.74.6-1.13,1.18-2.27.98-12.98-10.51-35.44-23.17-51.5-27.5.34-1.19-2.21-1.68-2.9-1.85-1.89-.46-2.09-.3-3.6-.15-.3.03-1.44.05-1.5,0-.33-.29.87-.78-1-1-.65-.08-1.34.02-2,0-.47-.72-1.21-.92-2-1-.49-.05-1.01,0-1.5,0-1-1.11-2.58-.53-3.5-.5-.42.01-1.91.07-2,0-.47-.37,1.14-.65-1.5-1-.47-.06-1.01.02-1.5,0s-.7,0-1,0c-.83-.02-1.67.02-2.5,0,.4-1.48-1.18-1.03-2.5-1-.66.01-1.34-.03-2,0-1.41-.84-4.06-.85-5.5,0-.66-.03-1.34.03-2,0,.59-1.65-3.93-1.25-5-.5-.66-.03-1.33.01-2,0l-.26-.5-.74.5c-.83.02-1.67-.01-2.5,0-1.17-.83-4.23-.85-5.5,0ZM217,355c-20.61-5.7-42.46-24.83-54.41-42.34-6.92-10.15-12.91-27.38-26.88-29.12-23.04-2.87-32.12,20.26-24.15,39.15,14.35,33.98,54.14,67.15,87.56,79.93,8.91,3.41,18.36,6.69,27.87,7.89-.16,1.42.11.86,1,1,.46.07,1.01-.04,1.5,0,1.11.09.41.27,2,0,.22-.04.97-.04,1,0,.12.13-.11.88,0,1,.3.3.94-.49,1-.5.82-.04,2.98.35,4,.5,2.4.35,2.45.49,5,.5,2,0,4-.01,6,0-.28,1.51.76.97,1.73,1,3.07.1,6.48.12,9.55,0,.96-.04,2.01.51,1.73-1,2.66.02,5.34-.05,8,0,.09,0,.6.53,1.64.48.81-.03,2.21-.41,2.86-.98,1.53-.12,2.48-.22,4-.5,1.21.88,4.07.01,5.5-.5.31.04.68,0,1,0,1.8-.05.71-.79,1-1,.14-.1,1.96.01,2.5,0,.84-.02,3.4.83,3-1,.5-.03,1,.02,1.5,0,.43-.02,1.63.83,2.5-.5.49,0,1.02.06,1.5,0,1.84-.22.67-.64,1-1,.03-.04.75-.02,1,0,.89.06,2.77.79,2.5-1,.45-.08,1.02.06,1.5,0,1.89-.25.66-.75,1-1,.21-.15,1.9.09,2.5,0,1.07-.16,2.81-.03,2.5-1.5.6-.11,1.38.1,2,0,1.28-.2,3.16-.29,4.13-.53.25-.06,1.97-1.9,2.11-1.9,1.24-.01,2.15.9,2.76-1.58,32.24-13.38,67.66-46.9,81.74-79.01,4.76-10.87,4.65-24.03-5.24-31.99-.13-.76-.38-1.83-1.03-2.3-.54-.39-.93.31-.97.3-.33-.08-.69-.43-1-.5.47-2.31-1.16-1.36-3-1.5-.39-.03-1.4.08-1.5,0-.33-.29.86-.79-1-1-.65-.07-1.34.04-2,0,.31-1.5-.74-.94-2-1-1.67-.07-3.88-.16-5.5,0-1.85.18-.68.77-1,1-.12.09-2.46.03-3,0-.33-.02-.96-.63-1.68-.53-.31.04-.33.84-.95,1.17-1.86,1-4.35.9-4.37,3.36-.26.2-1.06,1.08-1.5,1.5h-2c-.11.59.16,1.52,0,2-.12.37-1.14,1.57-1.5,2-.06.07-.89.89-1,1-.17.16-.33.34-.5.5-1.64,1.58-2.04.64-3,3.5-.05.15.05.36,0,.5-1.42-.2-1.42.7,0,.5-9.44,24.6-45.06,54.7-71.5,57.5-2.55.27-1.02.47-1.5,1-.1.1-.72-.09-1,0l-.26-1.51c-1.09.12-2.55.2-2.24,1.51-.16.02-.34-.02-.5,0-.86.1-.94.49-1,.5-.84.12-1.63.55-2.5.5-.07,0-.5-.69-1-.5-.06.29.08.92,0,1-.07.06-1.14,0-1.5,0s-.51-.02-1,0c-1.82.06-3.69-.11-5.5,0-2.6.16-1.1.7-1.5,1-.54.4-11.64-.01-13.5,0-.24,0-.74,0-1,0-3.81-.01-7.7.17-11.5,0,.31-1.5-.74-.94-2-1-1-.05-2,.05-3,0-.03,0-.19-.31-.6-.34-.16-.01-.29.34-.4.34-.26.01-.96.04-1,0-.33-.36.83-.8-1-1-.82-.09-1.69.1-2.5,0-.06,0-.17-.37-1-.5-.16-.03-.34.03-.5,0,.28-1.57-1.31-1.49-1,0-.3-.05-.92.08-1,0-.05-.05.18-.59-.13-.88-.23-.22-.81-.05-.87-.12-.1-.1-.44-2.9-1,0-.64-.07-1.38.09-2,0v-2c-.87.45-1.54.52-2.5.5-.16,0-.34.02-.5,0,.41-2.11-.86-1.76-2.5-1Z"/>
  </g>
</svg>