<?xml version="1.0" encoding="UTF-8"?>
<svg id="Layer_2" data-name="Layer 2" xmlns="http://www.w3.org/2000/svg" viewBox="0 0 512 512">
  <defs>
    <style>
      .cls-1 {
        fill: #8fa0dd;
      }

      .cls-2 {
        fill: #a8b8e9;
      }

      .cls-3 {
        fill: #bcc5f8;
      }

      .cls-4 {
        fill: #afc0ed;
      }

      .cls-5 {
        fill: #546cf9;
      }

      .cls-6 {
        fill: #6076d2;
      }

      .cls-7 {
        fill: #a3adde;
      }

      .cls-8 {
        fill: #7284d7;
      }

      .cls-9 {
        fill: #808fe7;
      }

      .cls-10 {
        fill: #728bef;
      }

      .cls-11 {
        fill: #7e8ed8;
      }

      .cls-12 {
        fill: #8b9de2;
      }

      .cls-13 {
        fill: #bdccf5;
      }

      .cls-14 {
        fill: #bcc8f3;
      }

      .cls-15 {
        fill: #3f54a0;
      }

      .cls-16 {
        fill: #7689f1;
      }

      .cls-17 {
        fill: #94aee9;
      }

      .cls-18 {
        fill: #9cafeb;
      }

      .cls-19 {
        fill: #cbd4e3;
      }

      .cls-20 {
        fill: #abe;
      }

      .cls-21 {
        fill: #8499e7;
      }

      .cls-22 {
        fill: #7e92c5;
      }

      .cls-23 {
        fill: #c9d1fc;
      }

      .cls-24 {
        fill: #c2ccf1;
      }

      .cls-25 {
        fill: #314bfd;
      }

      .cls-26 {
        fill: #e3e8ee;
      }

      .cls-27 {
        fill: #647ce1;
      }

      .cls-28 {
        fill: #92a5d9;
      }

      .cls-29 {
        fill: #7287d1;
      }

      .cls-30 {
        fill: #7283da;
      }

      .cls-31 {
        fill: #d4dbf9;
      }

      .cls-32 {
        fill: #3950a4;
      }

      .cls-33 {
        fill: #38509b;
      }

      .cls-34 {
        fill: #8ea1e0;
      }

      .cls-35 {
        fill: #8c9ede;
      }

      .cls-36 {
        fill: #455dfc;
      }

      .cls-37 {
        fill: #a8bae8;
      }

      .cls-38 {
        fill: #6c82d1;
      }

      .cls-39 {
        fill: #cfd8f2;
      }

      .cls-40 {
        fill: #5269d3;
      }

      .cls-41 {
        fill: #89d;
      }

      .cls-42 {
        fill: #586fc0;
      }

      .cls-43 {
        fill: #4a63fb;
      }

      .cls-44 {
        fill: #516aaf;
      }

      .cls-45 {
        fill: #aabae0;
      }

      .cls-46 {
        fill: #8092d5;
      }

      .cls-47 {
        fill: #8fa2c7;
      }

      .cls-48 {
        fill: #7189e2;
      }

      .cls-49 {
        fill: #9baee0;
      }

      .cls-50 {
        fill: #879bd6;
      }

      .cls-51 {
        fill: #98adf4;
      }

      .cls-52 {
        fill: #687fd5;
      }

      .cls-53 {
        fill: #9cafef;
      }

      .cls-54 {
        fill: #6b7fd3;
      }

      .cls-55 {
        fill: #6c83de;
      }

      .cls-56 {
        fill: #7a8ee8;
      }

      .cls-57 {
        fill: #8fa3e2;
      }

      .cls-58 {
        fill: #778ddd;
      }

      .cls-59 {
        fill: #4b64b4;
      }

      .cls-60 {
        fill: #fefefe;
      }

      .cls-61 {
        fill: #c3cff4;
      }

      .cls-62 {
        fill: #7f95f3;
      }

      .cls-63 {
        fill: #aabbed;
      }

      .cls-64 {
        fill: #d1d7fa;
      }

      .cls-65 {
        fill: #576fd2;
      }

      .cls-66 {
        fill: #5870c3;
      }

      .cls-67 {
        fill: #d5dbf5;
      }

      .cls-68 {
        fill: #3149fd;
      }

      .cls-69 {
        fill: #667ab2;
      }

      .cls-70 {
        fill: #abbef3;
      }

      .cls-71 {
        fill: #f4f7fa;
      }

      .cls-72 {
        fill: #dfe4f8;
      }

      .cls-73 {
        fill: #2c44fd;
      }

      .cls-74 {
        fill: #99abf3;
      }

      .cls-75 {
        fill: #5d72c7;
      }

      .cls-76 {
        fill: #5971d8;
      }

      .cls-77 {
        fill: #6a80dd;
      }

      .cls-78 {
        fill: #d3dbe8;
      }

      .cls-79 {
        fill: #546bc3;
      }
    </style>
  </defs>
  <g id="Layer_1-2" data-name="Layer 1">
    <g>
      <path class="cls-43" d="M96.06,0l1.88.5h310.94s.14-.5.14-.5h13.5c3.56.29,7.06.79,10.5,1.5.48-.15.95-.27,1.44-.33,3.89-.44,16.5,5.04,20.77,7.02,34.33,15.94,56.76,48.37,56.78,86.31v8.5c-.7.57-.76-1.66-.75-1.55.31,103.89.39,207.92.24,312.11l.51-.06v7.5c-.28,36.43-26.36,71.32-59.95,84.85-3.57,1.44-15.38,5.61-18.4,4.67-.39-.12-.77-.31-1.13-.52-.88-.63-.12-.55-.17-.55-3.36.27-6.98.59-10.35,1.06H89.18c-8.79-.44-17.42-2.55-25.75-5.43l-.37.42c-.46.1-.91.18-1.37.2s-.88.01-1.25-.13C25.54,492.02.71,457.49.07,420.5v-7c.7-.57.76,1.66.75,1.55-.3-103.24-.38-206.58-.25-310.03l-.5-.02c.16-3.13-.22-6.38,0-9.5C.36,46.96,40.35,1.8,89.56,0h6.5Z"/>
      <path class="cls-60" d="M353.52,115c2.59,1.44,1.88,2.58-.04,4.21.83.64,1.87.99,3.12,1.05l.55,1.08c1.62-1.59,3.58-1.03,5.86,1.67.13-.42.29-.41.5,0,.94-.48,1.38.03,1,1,.44.14.86.32,1.15.61,6.07,6.03,15.09,15.29,19.69,22.25.93,1.4,1.93,3.04,2.16,4.64,1.88.82,2.55,1.98,2,3.5.54,1.19,1.3,2.11,2.29,2.77-1.02,3.71,0,5.69,3.05,5.96l.16.77.46,1.16c2.44.31,2.68,1.52,2.54,3.84,3.65,6.09,6.72,13.99,9.02,20.73,3.67,10.77,9.08,30.07,6.42,40.97-6.45,26.42-41.19,27.81-48.8.92-1.78-6.28-2.87-13.09-4.64-19.61-1.49-.07-1.82-1.88-.5-2.5,1.91-4.93,2.13-6.39.65-4.38l-.8-.04-.71-4.51c-1.63,0-2.92-1.33-3.65-2.57-1.64-.97-4.34-5.2-3.5-7l-1.7-1.17c-3.22-6.29-6.63-12.88-11.69-17.75l-.1-1.08c-4.31-4.34-8.74-8.54-13.29-12.62l-.71-1.88-.51-.98c5.08-6.51,10.16-13.21,15.12-19.81.71-.94-14.64,16.01-15.36,17.76-.71.93-1.63.94-2.75.02-.93-.17-9.27-6.37-11.24-7.51-64.09-36.97-145.14,1.9-160.11,72.88-2.57,12.18-1.24,20.47-12.38,29.12-4.9,3.8-13.91,3.62-19.98,3-5.44-.56-13.03-7.92-15.19-12.81-7.03-15.87,4.23-49.2,11.34-64.52,43.32-93.31,158.67-123.43,240.56-59.16Z"/>
      <path class="cls-60" d="M129.95,283.15c19.45-1.9,24.78,18.34,33.69,31.01,28.16,40.02,70.49,52.99,118,44.7,27.41-4.78,53.54-22.69,68.6-45.89,6.52-10.04,11.72-24.38,24.3-28.2,16.04-4.88,30.82,8.94,30.5,24.96-.15,7.5-8.23,20.73-12.31,27.24-53.77,85.76-169.1,103-244.44,34.06-13.48-12.33-37.8-41.49-39.74-59.76-1.4-13.26,7.69-26.77,21.4-28.11Z"/>
      <path class="cls-60" d="M89.56,0l-.8.46C38.49,5.04,3.52,46.27.07,95.5V0h89.49Z"/>
      <path class="cls-60" d="M427.51,0h84.49v94.5c-1.46-5.89-1.32-12.21-2.62-18.13-8.72-39.49-38.13-65.49-76.37-74.87-1.72-.55-3.53-.85-5.42-.91l-.08-.59Z"/>
      <path class="cls-60" d="M63.06,505.5c.38-.17.75-.29,1.07-.21,5.04,1.26,11.22,2.86,16.1,4.42.33.1.58.42.82.79h.5c1.73.2,2.9.7,3.5,1.5H.07v-91.5c1.31,1.97.74,4.64,1.01,6.74,4.47,35.72,28.34,65.84,61.99,78.26Z"/>
      <path class="cls-60" d="M512,421v91h-85.99l-.15-.5c1.34-.49,2.72-.82,4.15-1-.03-1.11,1.84-1.24,2.5-.5,36.58-4.7,69.09-37.32,76.85-72.89,1.16-5.31,1.06-10.95,2.64-16.11Z"/>
      <path class="cls-64" d="M89.06,511c110.97-1.01,221.99-.55,332.95,0l5-.5c.44-.9,2.67-1.05,3,0l-4,1.5H85.06l-3.5-1.5c2.5-.09,5,.07,7.5.5Z"/>
      <path class="cls-73" d="M409.01,0c1.29.91,3.18.47,4.76.5.43,0,1.8-.2.99.5H97.78s-1.73-1-1.73-1h312.96Z"/>
      <path class="cls-25" d="M512,103v310.5l-1,4.25V101.25c.35-.86.99,1.65,1,1.75Z"/>
      <path class="cls-68" d="M.07,105l1-2.75v313c-.35.86-.99-1.65-1-1.75V105Z"/>
      <path class="cls-23" d="M427.51,0c.93.87,2.65.4,4.06.71.72.16,1.29.75,1.44.79-3.47-.74-7.18-.11-10.5-1.5h5Z"/>
      <path class="cls-76" d="M417.51,110c1.2-2.17,2.48-1.23,3.84,2.83,2.3,5.26,1.68,9.4.86,14.77.21,1.12.94,2.1,2.2,2.94-.89,1.92-1.02,3.24-.4,3.96,1.04.42,1.71,1.58,2,3.5-4.48,9.15-17.74,21.64-25.49,28.76-.62.57-1.03,1.25-2.01,1.24-.23-1.61.57-3.15,2.4-4.59,6.87-5.91,13.18-12.24,18.91-18.99-.78-.63-.88-1.59-.42-2.48-1.14,1.57-2.27,2.26-3.39,2.07-.83.43-1-.07-.5-1.5-1.08-.96-.34-1.98,1-1.5.73-3.41-.13-6.9-1.19-10.07-1.81-1.29-3.19-3.14-4.15-5.55-2.5-2.12-13.79,10-14.66,12.31l-7.99,7.37c-1.41,1.58-1.13,3.33.85,5.26,1.19,2.44-.31,3.35-1.85,1.18-7.25-10.42-15.56-18.09-23-27.5-.96-1.03.23-1.37,1.49-1.08,2.14,2.47,4.47,4.65,6.98,6.55,4.09-4.27,8.45-8.26,13.08-11.99,2.88-2.86,5.96-6.05,6.53-10.18-.64-5.66,2.89-5.63,6.33-2.47,4.39.24,6.19,1.64,7.23,5.97,3.11,4,8.77,6.14,10.22-.63l1.14-.17Z"/>
      <path class="cls-41" d="M217.54,213.5l2.95,4.95-.45,1.05c.67.31,1.3.65,1.8,1.13,6.16,5.83,11.77,13.52,16.7,20.37.33-.28.69-.37,1.08-.23l3.13,4.41c.47-1.48,1.02-1.56,2.28-.67,1.06.97,1.64,2.3,2.88,2.87,2.08.95,4.88.55,7.12.63.44.14.43.31,0,.5-.55,1.28-3.23,1.3-4.5,1-.61.08-2.64,2.86-2.38,3.41.45.95,6.5.86,7.38.59,3.86.65.58,5.22-1.38,7.01.08,1.57-.29,2.73-1.12,3.49.98.8.98,1.7,0,2.5-1.82-.18-2.91.62-3.94,2.07-1.52.44-3.17-.03-4.95-1.43-8.09,1.31-11.83-9.18-11.68-15.52l-10.06-12.01.13-1.11c-4.45-4.15-8.42-8.68-11.9-13.6.61-1.48.27-2.16-1.02-2.04.42,2.9.36,5.62-.18,8.19-.69.49-7.34-2.79-8.1-3.44l-.3-1.1-.04-1.09,5.68-2.67c.06-6.79,3.27-6.54,8.31-5.36.71.16-1.28-5.33-2.45-5.88-.73.05-1.56-.41-2.49-1.39-1.75-.81-2.75-1.85-3.01-3.11,1.57-.23,2.39,1.22,3.53,1.72.99.43,2.06.27,3.16.84,1.38.72,2.69,2.89,3.81,3.94Z"/>
      <path class="cls-36" d="M63.06,505.5c-.75-1.09-.7-1.22.64-.9,7.91,1.89,15.15,4.74,23.58,5.42h335.5c3.1-.31,5.82-1.06,8.98-1.02,1.25.01,1.62-.32.74,1-.89.11-1.98.45-2.5.5-.98.09-2.01-.04-3,0l-5,.5c-110.97.57-221.98-.43-332.95,0-2.66-.46-5.33-.62-8-.5-6.22-.84-12.14-2.84-18-5Z"/>
      <path class="cls-18" d="M179.55,261.5c2.11.21,4.14,2.35,4,4.5,2.88,2.08,5.15,5,7,8,.4-.12.79-.11,1.01.2,2.19,3.13,4.61,6.16,7.57,8.64l-.09,1.16c.84.72,1.51,1.55,2,2.5h.7c7.47,8.31,14.92,16.85,21.68,25.88,7.35,8.82,16.09,18.81,28.05,20.09-.08-2.32,1.09-3.5,2.84-4.82-5.5-5.17,8.58-9.14,11.19-7.73,1.5,2.13,2.6,3,5.2,3.8,1.14,1.45,2.49,1.75,4.08.88.27,1.34.58,1.9,1.74,2.89,1.19,1.66-2.69,3.65-3.5,1.5l-2.56-.19c-3.82-2.98-9.77-.82-12.74,2.35,2.11,2.79-.06,4-2.98,3.88l-6.13-.35c1.54,1.48,1.84,2.59.91,3.31-1.12.1-2.28-.06-3.5-.5-1.23-.24-1.92-.6-3-1-1.37-.86-1.95-1.98,0-1.5.6-1.59-2.93-2.92-4.52-3.12-3.92-2.26-6.93-5.51-10.07-9.01-12.96-15.73-26.12-31.36-39.49-46.88l-.92-1.99-.72.17c-2.99-4.1-6.23-8.07-9.78-11.67-1.53-2.26-2.73-4.44-3.61-6.55l.61-.45c2.69,1.2,4.12,3.23,5,6Z"/>
      <path class="cls-59" d="M188.04,274c5.93,6.88,12.31,13.57,18.25,20.49,8.76,10.2,17.37,22.27,26.73,31.77,3.67,3.73,6.1,5.05,10.93,7.07.58.24,2.5.57,2.58.67,1.17,1.57-2.96,1.2-3.5.99-1.06.3-2.29-.18-3.67-1.44-.27.56-.63.59-1.18.38-5.98-2.3-12.2-9.12-15.14-14.44-2.31-2.63-4.76-5.37-7-8-9.52-10.34-18.5-21.18-26.94-32.51l-1.55-3.99c-.81-.66-.66-1.3.5-1Z"/>
      <path class="cls-44" d="M186.04,207c1.29-1.71,3.68-.12,1.5,1-1.34,1.21-1.9,2.5-1.67,3.85,2.78,1.01.81,2.88-.73,4.28-.76,1.91-1.8,3.03-3.1,3.37-.39,3.55-1.27,4.02-2.64,1.4-1.03,1.44-1.99,1.81-2.86,1.1-.15.46-.31.46-.5,0-.86.49-1.69.99-2.5,1.5-.98,3.39-2.48,6.72-4.5,10l.24.54c-1.32,1.28-1.9,3.1-1.74,5.46l.58.6c-.77,2.22-1.13,4.52-1.08,6.9.62,1.32-.39,1.85-1.3,1.16-.79-.61-2.32-10.55-1.2-12.16,1.08-5.64,1.43-11.07,5-16,1-.83,1.36-.04,1.48,1.1.3-.88.97-1.25,2.02-1.1-.41-1.01.28-1.97,2.07-2.91.4-1.31,1.23-2.82,2.43-3.59-3.8-.15,1.71-5.17,4-4.5,1.23-.72,3.26-1.28,4.5-2Z"/>
      <path class="cls-53" d="M314.53,273c-2.67,6.75-11.95,18.27-16.21,25.04-8.21,13.05-14.96,28.37-28.03,36.96-1.58,1.04-2.5.61-3.75,1h-.5l.2-1.23c2.88-1.04,4.76-2.33,5.68-5.45l1.13-.32c1.33.09,2.88-.17,3.5-1.5v-.5c-.3-1.39.79-2.32,3.29-2.78-.42-1.34.17-2.54.83-3.75,4.18-4.95,7.81-10.11,10.88-15.47l-.46-.51c1.13-1.36,2.3-2.82,2.96-4.49l.37-1.64c6.87-10.33,13.77-20.63,20.72-30.91l1.41-.94c.98-1.3,1.52-1.64,1.83.11l-3.82,6.39Z"/>
      <path class="cls-74" d="M359.52,210c.21.76.27,1.66.5,2.5l-5.49,5.76c-5.95,8.57-13.06,16.39-19.22,24.78-7.19,9.79-13.38,20.33-20.79,29.96.96-2.43.03-1.48,2-4.25.26-.36,2.09-3.7,0-2.25-.16-.2-.3-.41-.38-.64-.14-.42,3.95-6.49,4.66-7.41.08-.11.37-.05.72.05.82-.74,1.15-1.52.98-2.34,6.3-8.82,12.87-17.54,19.68-26.12,4.46-7.72,9.67-14.86,15.62-21.41l1.22-.13c.97-.09.79.81.5,1.5Z"/>
      <path class="cls-27" d="M322.53,156l.56.82c1.71,1.33,1.42,2.82-.87,4.48l2.89.31c2.18.36,2.99,1.16,2.41,2.39l-.81.83c-1.26-1.63-3.75,2.56-4.04,3.41.52,1.74.27,3.21-1.77,3.52.1,1.91-2.61,4.86-3.88,2.74l-.58-.99c1.43-2.12,2.62-4.29,3.58-6.51-.58-.65-.16-1.58,1.27-2.78l-.77-.72c-.45.11-.61-.05-.5-.5-1.32,1.12-2.64,2.65-3.96,4.59l-1.04-.09c-1.04-.12-.29-.25-.31-.21-13.25,16.43-25.54,33.98-36.94,51.99l-1.24.72c-.75.49-1.25.49-1.5,0,12.14-18.03,24.26-36.06,37.29-53.46,1.39-1.86,8.36-9.59,8.59-10.88.07-.42-.15-.82-.38-1.16,1.52-.95,3.04-.22,2,1.5Z"/>
      <path class="cls-42" d="M388.02,90c.75,1.3-.37,1.84-1.5,1-1.15,1.36-2.39,2.62-3.73,3.77.47,1.13-.13,1.13-1.27.73-.07,1.4-1.29,2.42-3.65,3.05-1.53,1.4-3.15,2.38-4.85,2.95-1.68,2.58-1.79,3-.32,1.27l1.32-.27c.22-2.81,9.96-8.28,8.01-2.44-7.7,5.87-14.55,12.72-21.1,20.08l-1.41-.64c-1.68.55-4.31-1.78-4-3.5,1.91-1.96,4.3-3.65,6.26-5.49,4.41-4.12,14.79-16.46,19.23-18.51.64-.5,5.45-3.5,5.78-3.41.3.09,1.51.99,1.22,1.41Z"/>
      <path class="cls-66" d="M415.51,92c1.15.57,2.91,2.55,4,3.5,1.79,5.64,4.18,11.22,7.18,16.72l1.32.28c1.05,1.11,1.28,2.65.69,4.62-.27,2.86-.85,7.44-2.69,9.38l-1.12-.68c.19-6.7-2.11-12.35-5.84-17.87l-.54-2.94-1.23-.12c-.66-.47-7.04-6.29-7.13-6.78-.2-1.04,0-2.02,1.16-1.71,1.97-.96,1.47-2.93-.3-3.89-1.16.73-1.46.27-1-1-.62-2.97,4.21-1.3,5.5.5Z"/>
      <path class="cls-14" d="M416.01,144c1.14-1.47,3.4-3.4,4.73-5.02,1.14-1.39.11-2.53,3.26-1.97.12,1.41-1.38,1.3-2.23,2.52-.23.33-1.66,3.14-1.68,3.33-.15,1.23,1.85.62-.38,3.61-5.38,7.19-16.48,14.37-21.2,21.55-.33.5-.67.75-.5,1.5-.53-.88-.98-1.87-1.57-2.7s-1.92-.7-1.43-2.3c.13-.43.3-.42.5,0h1.11c5.62-6.01,11.33-11.95,17.13-17.81.61-1.64,1.36-2.54,2.26-2.69Z"/>
      <path class="cls-16" d="M381.02,92c.83-1.79,3.14-2.44,4.33-3.67.32-.33.32-1.27.88-1.85.84-.86,3-3.26,3.82-3.69.64-.33,9.37-1.84,10.24-1.81,1.38.04,9.44,3.77,10.7,4.79,1.44,1.16,1.05,2.28,1.67,3.08.58.74,2.48,1.6,2.85,3.15-.83-.41-5.42-1.98-5.5-.5-1.78.99-3.12-1.36-1.35-2.61-6.07-2.55-13.6-3.78-19.57-.3.62,1.25.18,1.99-1.08,1.41-.47-1.15-1.49-.09-2.09.17-1.55.68-3.64,1.24-4.91,1.83Z"/>
      <path class="cls-7" d="M263.53,249.5l.11.65c-1.92.37-3.12.99-3.61,1.85,1.53,1.93-2.11,3.69-3.33,1.14.33-2.55-.35-3.02-2.58-3.84l.91-.81v-.5c1.78-1.23,3.03-2.97,4.5-4.5l2.36-3.27c.88.22,1.76.65,2.64,1.27,3.21-3.85,6.15-8.02,8.82-12.51l1.68-1.49c1.88-.37,1.74,2.12,1.53,3.52-3.28,6.4-7.22,14.04-13.03,18.48Z"/>
      <path class="cls-32" d="M426.01,138c-1.32.42-2-2.63-2-3.5-.64-1.01-.31-2.51,1-4.5-.33-1.99,0-3.16,1-3.5.66-4.67,2.1-9.27,2-14-1.49-.39-1.24-1.34,0-2,.96.39,1.19.83,1.46,1.79,2.32,8.06.16,18.32-3.46,25.71Z"/>
      <path class="cls-26" d="M324.03,157c-.69.76-1.67-.09-1.5-1-.52-.45-.74-1.64-2-1.5v-.5c.77.14,1.5-.14,2.04-.71,4.91-6.07,9.8-12.19,15.2-17.82.95-1.02,1.58.07,2.26.78l-15.99,20.75Z"/>
      <path class="cls-79" d="M245.04,244.5c-1.8-.4-1.05,2.46-2.24,2-1.04-.4-3.34-4.38-4.26-5.5-4.9-6.99-11.24-15.31-17.52-21.33-.23-.22-.62-.19-.97-.17-1.7-2.06-1.61-3.48-2.5-6,10.17,9.57,17.7,22.08,27.5,31Z"/>
      <path class="cls-10" d="M216.04,311.5c-.64,1.35-1.24-.21-1.61-.64-9.44-11.01-18.72-22.27-27.89-33.36.48-1.22,1.68.95,1.57.86-.9-.73-2.18-2.46-1.07-3.36.14-.44.31-.43.5,0,8.58,12.56,18.53,24.82,28.5,36.5Z"/>
      <path class="cls-48" d="M428.01,110.5c.07.63-.01,1.35,0,2-.93-.02.03,5.6-1.49,4-.13-.13-.42-2.91-.65-3.61-1.47-4.43-6.08-11.4-6.76-14.77-.19-.95-.14-1.81.41-2.63,4.87,4.25,7.73,8.14,8.5,15Z"/>
      <path class="cls-77" d="M276.53,220l.29.79c-3.32,5.31-6.65,10.63-10,15.94l.21.77c.39,1.07-1.47,3.58-2.5,4-.51,0-1.1,1.32-2,1,.27-3.4-2.01-.04-3,1l3.29-5.96c4.1-5.81,8.24-11.65,12.21-17.54l1.2-.45.3.45Z"/>
      <path class="cls-51" d="M177.55,262.5c3.56,3.57,6.81,7.62,9.83,11.73l-.34.77c.5.95.71,2.51,1.5,3.5-.89.2-1.26-.61-2-1-2.37-2.87-12.1-13.12-13-15.5-.46-.56-.46-.89,0-1,1.05-.58,3.99.01,4,1.5Z"/>
      <path class="cls-3" d="M206.54,206.5c.21.11.35.42.5.5,1.48.83,4.63,3.13,5.5,4.5,3.34,2.55,2.29,8.25-2.51,4.54-4.69,4.98-12.26,3.29-16.98-.86-.61-1.58-1.44-2.81-2.5-3.69-.27-2.1,2.5-1.88,3.97-.97,3.94,4.04,7.67,3.57,12.79,2.45l4.17.54c-5.78-5.69-13.03-5.92-20.73-5.08l-.7-.95.41-1.31c4.71-1.4,11.75-2.31,16.09.31Z"/>
      <path class="cls-56" d="M164.55,236c.41,3.48.63,6.89,1.43,10.33.17.73-.09,2,1.07.67.43.52.77,1.36,1,2.5l1.15.47c1.16,3.44,2.61,6.84,4.65,9.87l-.3,1.16c.06.31-.09.77,0,1-5.42-4.84-11.36-17.46-9.99-24.76.19-1.02.98-1.16.99-1.24Z"/>
      <path class="cls-62" d="M223.04,319.5c3.1,3.53,6.38,7.76,10.04,10.71.81.65,4.85,3.44,5.37,3.18.2-.1-.24-1.24,1.23-.79,1.05.32,2.96,2.25,3.36,2.41l-.45.3.45,1.2c-9.66-3.56-13.56-6.8-19.77-14.98-.44-.58-1.4-1.5-.23-2.02Z"/>
      <path class="cls-55" d="M181.55,209c-1.2.7-4.38,2.19-4.4,3.65,0,.35.41.71.41.85l-.68,1.01c-2.88,1.44-4.15,3.28-3.82,5.49-1.04,1.09-1.7,3.11-3.24,3.5-.6-.68.21-1.79.22-2.71,0-.38-.49-.73-.48-.8.21-2.17,2.88-5.77,4.49-7.26.5-.46,4.73-3.85,5.02-3.98.72-.33,2.03-.63,2.49.24Z"/>
      <path class="cls-19" d="M355.52,116c1.24,1.01,2.63,2.37,4,3.5,1.6-.62,4.39,1.74,3.5,3.5-1.64-.1-2.07-2.02-3.24-2.01-1.01,0-2.31,2-3.75,1.51v-2c-2.48,1.23-2.09-.47-4-.5.14-2.21,4-2.65,1.5-5,.28.22,1.31.44,2,1Z"/>
      <path class="cls-9" d="M206.54,206.5c-4.86-2.38-11.81-1.49-16.5,1-.28,1.36-1.15,1.64-2,.5h-.5c.23-1.34-.32-1.02-1.5-1,.04-.02-.09-.69.16-.83,2.99-1.75,3.28-.59,5.59-.77,4.75-.36,10.8-2.29,14.75,1.1Z"/>
      <path class="cls-62" d="M266.53,336c-5.53,3.81-14.39,3.63-20.5,1.5.99.2,2.5.43,3.5.5l1.21-.92c4.73.4,9.44-.21,13.94-1.71l1.35.63c.15-.05.35.05.5,0Z"/>
      <path class="cls-43" d="M89.06,511c-2.52.15-5.02-.21-7.5-.5-.16-.02-.34.02-.5,0,2.12-1.02,5.74,0,8,.5Z"/>
      <path class="cls-43" d="M427.01,510.5c-1.15.91-3.43.49-5,.5,1.17-.96,3.41-.43,5-.5Z"/>
      <path class="cls-40" d="M351.52,191.5c.45,1.19-.18,1.6-1.88,1.23-.94,1.93-2.48,3.43-4.61,4.51-1.93,3.55-4.29,5.86-7.62,8.12-14.27,16.74-26.3,34.11-38.23,52.58-.75.85-1.64,1.53-2.66,2.05-.71,2.48-1.52,3.44-3.48,5.02-3.15,4.42-6,9.08-8.55,13.97-1.58.13-2.8,1.11-3.66,2.92,1.3,1.79.2,3.2-1,4.75-3.47.51-4,1.84-3.3,5.03-2.66,6.8-6.85,12.92-10.99,18.88-2.51,3.76-4.62,2.33-7.53.23-10.88-2.15-16.79-7.87-24.21-16-8.48-9.29-16.3-19.14-23.95-29.11-.26-.34-.4-.78-.54-1.25s-.21-.95-.27-1.44c-4.72-3.8-8.3-8.31-10.73-13.51-3.8-1.09-2.95-5.09.98-4.99,2.34-4.3,7.42,1.09,8.12,4.23,3.06,1.27,4.6,1.97,4.37,5.51,2.22.98,3.48,2.34,3.76,4.1,1.44.2,1.95.46,2.93,1.58l3.49,7.17c2.91,1.9,4.88,4.14,5.92,6.71,3.2,1.54,5.91,3.62,8.12,6.24l10.29,1.92c1.8-1.72,2.46-1.47,4.12.14-.53-2.67.39-3.56,2.92-2.12.38-1.78,1.4-2.41,3-2.94.54-2.05,1.42-2.58,3.5-2.67.78-2.46,2.19-4.28,4.77-4.9-.35-1.4-.03-2.4.94-2.98l.14-1.21c5.53-3.78,10.74-9.14,14.64-14.75,12.76-18.35,25.3-36.83,37.7-55.44,2.45-4.16,5.45-7.7,9.01-10.6.07-2.43,1.63-4.37,4-5,.25-2.8,3.98-6.81,6.5-8,.11-.33.28-.31.5,0,.97.03,2.77,2.35,3.49,3.26,4.26,5.34,7.03,10.74,10.01,16.74Z"/>
      <path class="cls-29" d="M351.52,191.5c1.1,2.22,2.81,4.32,3.5,7,.77.36.84.76,0,1-.62.71-2.11.04-2.87-.56-3.24,4.23-6,8.94-8.27,14.14-16.77,20.49-32.13,41.97-46.08,64.44-2.72,3.62-6.29,8.11-10.23,10.18.72,2.54-.6,4.65-3.96,6.33l-.17,2.65c-4.72,6.9-9.47,14.05-12.99,21.58-1.75,1.95-8.6,1.62-11.06,1.23-1.75.86-3.41,1.57-5.18.17-4.35-4.13-7.61-4.97-13.58-4.19-5.05-.43-14.42-2.82-16.48-7.83-3.72.08-4.99-1.3-6.61-4.52-5.58-5.16-10.86-10.64-15.57-16.4l-.28-1.63c-2.7-2.08-5.04-4.47-7-7.18l.86-.91,1.2-.3c2.13,2.64,4.61,4.57,7.43,5.79,3.09,6.88,10.59,12.79,16.76,17.21.1.07.34-.04.61-.21l.52-.43c-3.63-5.59-7.54-11.09-11.74-16.49l.23-.58c1.82.76,3.7,2.36,5.14,3.92,4.5,6.48,9.5,12.45,14.99,17.91,2.85-1.55,5.98-.17,5.02,3.33,2.09.82,3.46,2.09,4.11,3.79,4.81-.75,8.56-.46,12.45,2.48,2.44.06,3.87.73,5.46,2.55,10,2.23,12.98-1.1,15.31-10.28,1.98-2.05,2.07-3.04.21-5.22-.56-2.83,5.56-12.82,7.55-15.14,2.01-4.15,4.4-8.08,7.18-11.78,1.01-4.08,4.16-7.82,7.29-10.57l1.29-2.99c12.91-18.21,24.83-39.08,40.17-55.33,1.15-1.22,3.47-2.43,4.59-3.66s1.92-3.33,3.03-4.47c.98-1,2.52-1.47,3.48-2.52.74-.82,1.15-2.42,1.26-2.5.5-.36,2.04.96,2.46-.02Z"/>
      <path class="cls-34" d="M386.52,91c.51.96.17,2.01-1.04,3.18-1.95,1.33-.47,1.45,4.45.34,4.87,4.3,14.06,5.32,18.48-.33,2.51.68,3.23.48,2.18-.61l.43-1.08c2.65.88,2.75,2.02,1.19,3.97-.47.58-1.5.3-1.18,1.27,2.66,3.05,5.41,3.48,7.49,7.27,1.23,2.41.89,4.08-1,5-.43,1.19-2.02,4.79-3.01,5.24-2.64,1.19-7.11-1.06-8.77-3.21-1.25-1.62-1.09-4.18-2.75-5.25-1.44-.93-3.19-.46-4.46-1.04-1.37-.62-2.05-2.72-5.01-1.74.61,4.4-.67,7.12-3.29,10.46-4.6,5.86-11.89,10.04-16.72,15.81-1.94.86-5.64-4.3-7.23-5.78-.4-.38-1.33-1.67-1.76-.49-.2-.25-.9-.44-1-1-1.03-.98.31-2.24,1.5-1.5.96.73,4.43-2.03,5.88-3.43,2.26-2.19,5.04-5.94,6.12-8.57l.04-1.48,5.05-5.18c-.57-1.53-.41-2.44.14-4.07-1.18-1.38-1.42-2.47-.73-3.28,1.77-1.38,3.12-3.07,5-4.5Z"/>
      <path class="cls-11" d="M387.52,151.5l1.5.75c-.58-3.16-4.18-3.84-1.52-7.51,1.31-1.81,6.24-5.52,8.27-7.72s4.09-5.49,5.98-7.52c1.14-1.22,7.53-5.65,8.88-5.4,2.38.45,2.46,3.25,3.35,4.55.59.86,2.36,1.18,2.83,2.85.25.89-.27,1.65-.14,2.17.21.85,1.07,1.51,1.18,2.65.16,1.77-.6,3.29-1.34,4.69-.49-.09-.8-.37-1.04-.77-6.5,7.96-13.18,15.77-20.05,23.42-3.01-.12-3.89-2.97-3.86-5.56l-2.04-3.1c-.94-.86-1.42-2.67-2-3.5Z"/>
      <path class="cls-2" d="M389.52,155l2.49,2.5c1.05-1.6,1.26-4.92,2.06-6.2.45-.73,3.21-2.67,4.21-3.79,4.94-5.58,9.62-11.94,17.24-14,.14,1.39-.94,2.49-1.74,3.5-3.59,4.51-10.02,9.2-14.27,13.73-.96,1.03-6.52,6.82-6.73,7.27-.85,1.83.71,4.32,2.43,4.96l19.8-23.72c1.99-.89,1.53.36,1.51,1.76-.2.37-.69.97-1,1.5-.2,2.43-1.95,4.58-3.57,6.41-5.13,4.82-9.98,9.78-14.75,14.95-.44.48-1.03.67-1.69.65-.08-.08-.37.07-.5,0-1.04-.6-3.08.52-4.24-2.01-.78-1.7.32-2.79.15-4.13-.13-.99-1.44-2.14-1.4-3.36Z"/>
      <path class="cls-52" d="M381.52,95.5c1.38,2.38,1.89,3.15,1,6l2,.75c-2.93,2-5.03,4.8-7.49,7.26-2.01,3.99-6.1,8.08-9.59,11.08-.66.57-1.57.75-2.4.92-.37.35-1.32,1.43-1.5,1.5-.09.04-.34.01-.5,0-.92-1.35-2.26-2.48-3.5-3.5,1.13.04,1.33-.69,1.91-1.34,3.18-3.59,6.73-6.77,9.76-10.49l10.32-8.43c.31-.74-.45-.93-1-1.01-2.16-.33-4.88,2.87-6.49,4.27-.59-.01-.86-.4-1-1,2.89-2.5,5.94-4.01,8.5-6Z"/>
      <path class="cls-5" d="M324.03,157c5.2,4.25,10.24,8.88,14,14.5-.17,0-.33,0-.5,0-1,.2-2.07-.23-3.22-1.29-1.86-.3-3.45-.87-4.78-1.71-.09.45-.26.43-.5,0-1.66-.23-1.67-2.57-.65-3.61l-.35-.39c-.75.73-1.02.44-.5-.5-2.41-2.51-4.72-.74-7.5-2.51l3.49-2.76c.31-.86-2.42-1.32-.99-2.73.57.48,1.12.69,1.5,1Z"/>
      <path class="cls-78" d="M355.02,198.5c1.36-.24.9,1.28,2.25,1.53,1.79.32,2.26-.73,3.75-1.02.22,1.16-1.13,1.42-1.4,2.35-.33,1.11-.01,2.49-.1,3.65l3.99-3.5c-.49,3.08-2.19,6.02-3.99,8.5-.09-.32-.74-.84-.5-1.5-1.38-.89-1.69-2.54-.92-4.95l-2.08-3.05c-.61.82-1.4-.18-1-1-.05-.32.07-.72,0-1Z"/>
      <path class="cls-58" d="M426.01,126.5c-.16,1.16.19,2.52-.03,3.72-.26,1.37-1.96,3.06-1.97,4.28-3.25,1.89-.41-3.01-.47-3.71-.03-.37-1.11-.52-1.54-1.01-1.78-2.03,0-5.83.04-8.51.08-4.69-1.12-7.07-2.99-11.06-.61-1.3-.51-.76-1.54-.2.59-1.64,1.29-3.2,1-5,2.5,4.54,5.86,9.01,6.87,14.38.4,2.13.21,4.88.63,7.12Z"/>
      <path class="cls-47" d="M416.01,144c-.9,1.15-.92,2.37-1.72,3.53-2.08,3.01-9.63,8.86-12.79,12.21-1.03,1.09-3.67,4.98-4.48,5.52-1.77,1.2-1.43-.68-1.51-.76,6.35-7.57,14.93-13.44,20-22l.5,1.5Z"/>
      <path class="cls-6" d="M201.04,226.5c2.47.47,5.67,2.98,8,4l-.49-9c.44-.46,4.14,1.48,4.85,1.9,4.28,2.51,3.79,3.41,6.16,6.84,1.12,1.62,3.75,3.48,3.24,5.26-3.18-3.38-5.91-7.54-9.5-10.5-.56-.46-.81-1.21-1.75-1-.76.79,5.21,6.83,5.98,7.76,1.76,2.12,3.56,4.39,5.01,6.74,1.63,1.66-1.57,2.21-2.13,0-.58-1.25-1.26,3.44-.56,4.15,3.3,2.9,5.54,7.16-1.01,7.2-6.16-1.43-6.95-.68-2.38,2.26,1.43-2.38,4.38-1.87,4.26,1-1.51,3.15-2.27,4.93.84,7.07,2.91,7.85,9.58,14.49,17.45,17.2,5.35-2.88,10.81-5.67,16.36-8.34l4.16-.54c.49-1.74,4.49-2.85,6-2-.14.78.22,3.73-.02,3.98-.09.09-1.4,0-2.51.74-1.75,1.17-2.33,4.08-2.54,4.21-.46.3-1.74-.19-2.45.29-.45.3-.44,1.46-.98,2.02s-1.84.59-2.25,1.26c-.99,1.63.68,3.32-3.74,1,.12,1.22,1.07,2.12-.26,3-1.31.37-2.23-1.49-2.49-1.49s-.87,1.4-1.96,1.45c-.86.04-9.95-1.7-10.95-2.05-.55-.19-2.09-2.64-3.09-3.41-1.37-1.06-4.5-1.92-5.28-3.22-.62-1.03-.3-2.27-.92-3.08-.44-.58-2.78-1.3-3.79-2.21-2.57-2.3-3.29-6.75-4.99-9.01-.51-.67-1.65-.33-2.26-.74-.74-.5-.56-1.87-.96-2.43-.35-.49-2.65-.85-3.31-2.34-.5-1.13.36-1.99-.18-2.75-.74-1.04-3.37-1.74-3.93-2.35-.47-.51-.51-1.82-1.11-2.65-.23-.32-3.52-3.06-3.76-3.1-1.02-.16-1.38,1.51-2.09,1.77-1.12.4-3.52-.16-2.63,2.31.31.86,1.58.54,2.01,1.11.32.43.29,1.52.72,2.16,2.28,3.33,6.53,8.53,9.23,12.02-.55.93-1.46.91-2.72-.05l-2.07,2.16c2.92.75,3.87,2.15,2.84,4.2,1.85-.07,2.91,1.38,3.18,4.35,2.96.98,4.81,1.89,6.05,4.99,6.95,6.91-3.34,8.5-6.33,1.55-5.73-5.26-10.17-11.15-13.32-17.66-5.08-4.77-5.5-8.97-5.14-15.6-2.23-3.51-1.93-5.14,2.16-6.37l2.75-2.33c-1.53-1.76-2-4.01-.67-6.07-2.45-1.44-5.05-2.58-7.8-3.4-.97-.91-1.32-1.27.06-1.78,3.73-1.22,8.07-1.12,12-.5.15-1.35.45-1.22,1,0Z"/>
      <path class="cls-30" d="M259.53,268.5c-6.21,2.03-11.38,5.66-17.5,8.25-2.29.97-2.08,2.41-5.11,1.12-3.73-1.59-11.1-7.62-13.22-11.02-1.14-1.83-1.75-4.47-3.45-6.81-.37-.51-1.38-.63-1.63-1.36-.96-2.72,1.38-5.77,1.2-6.18-1.08-2.39-3.14.23-3.02,2-1.24-2.04-4.58-3.44-4.25-6.24.15-1.29,2.77.74,3.54.04,1.96,1.27,4.28.09,6.47-.03l-2.29-4.22c-3.11-1.31-1.13-3.78-1.35-5.73-.06-.52-2.5-3.7-.12-2.3.6.35,1.73,1.25,2.28,1.75.63.57.06,1.44,1.22,1.24.34-.06.23-.49.26-.5.85-.1,9.06,11.29,10.76,12.51.54,1.19-.31,2.1-.05,3.48.29,1.57,3.71,9.19,4.81,10.23,1.84,1.73,4.06.96,6.11,1.39,1.16.24,3.27,1.98,4.08,1.92.21-.02,1.14-2.04,3.17-2.45,1.4-.28.96.29,1.62.92,1.01-.88,2.05.4,2,1.5,2.31-.65,3.81-.48,4.5.5Z"/>
      <path class="cls-49" d="M329.03,168.5c.17,0,.33,0,.5,0,2.01.67,3.9,2.88,3.25,5.09-1.07,2.02-1.75,3.68-1.75,5.91-1.35,1.67-2.69,3.3-4,5-2.2-.64-3.22-.2-4.98,1.44-7.24,6.76-13.19,17.45-17.2,26.41l-5.09,5.1c-4.16,6.35-8.86,12.22-14.1,17.6-6.47,10.6-14.49,23.38-25.04,30.09-1.55,2.24-3.41,3.2-5.59,2.87-1.6-.56-1.12-.65-2-1.5,0-.83,0-1.67,0-2.5,6.48-3.03,13.42-7.61,16.29-14.62.46-.59,1.07-1.28,1.71-.88,7.37-10.51,14.56-21.33,21.55-32.46l22.14-29.9c2.41-2.88,5.24-5.27,8.51-7.17,3.48-2.3,4.04-5.93,3.85-9.85l.94-.61c.22-.22.55-.22,1,0Z"/>
      <path class="cls-45" d="M188.04,208c.47.88.19,1.82-.84,2.81,1.6-.44,2.71-.21,3.34.69,3.32-.16,1.49,1.1,3.24,3.01,2.47,2.69,8.77,4.38,12.24,3.22,2.6-.88,3.19-5.07,6.77-.74,1.12-1.63.79-3.86-.25-5.49l2.25,1c-.37,1.35,1.97,4.34,1.53,5.01-1.2,1.86-2.65.09-3.5.03-.34-.02-4.13.55-4.31.67-1.02.69.14,4.03-1.21,5.29l-6.25,2.99c-.3-.06-.67.03-1,0-4.9-.81-10.35-.38-14.94.85-3.32-1.63-4.73-4.71-3.06-7.85.75-1.41,1.38-2.61,2.29-3.96.49-.72,1.79-1.6,1.99-2.04s-2.66-3.57,1.22-5.5c.12-.06.34.05.5,0Z"/>
      <path class="cls-4" d="M255.04,248.5c.08.05-.22,1.67,1.25,1,.8-.37.69-1.96,1.23-2.77,1.7-2.51,7.11-5.05,4.29-1.21-1.79,2.44-5.52,3.32-4.77,6.98l.99-.51v1.51c1.13.43,1.69-1.36,2-1.5,1.62-1.24,3.69-2.19,6.21-2.85,1.53-1.22,2.96-1.78,4.29-1.65,1.33-.55,1.09-.07.5,1-1.43,1.54-1,2.74-2.07,4.18-.71.95-5.35,6.17-6.18,6.82-2.47,1.92-5.86,3.15-8.24,5.26l-1.5-.76c0-1.12-.2-2.64.1-3.65.45-1.52,4.86-3.73,2.4-6.85l-.5-1.01c1.37-1.19-.17-1.79-4.62-1.8l.12-1.19c1.06.25,3.86-1.43,4.5-1Z"/>
      <path class="cls-67" d="M250.54,249.5c.09.02.33.44.76.48,2.45.26,7.59-.87,4.24,3.52-2.1,2.74-6.22.65-9,0l2.13-3.85c.8-.82,1.27-.25,1.87-.14Z"/>
      <path class="cls-33" d="M238.54,241c-5.99-7.28-12.5-14.22-18.5-21.5.74-1.43.6-.95,1.5-.25,3.78,2.92,12.88,14.91,16.2,19.3.32.43,1.88,2.02.8,2.45Z"/>
      <path class="cls-46" d="M355.02,199.5c.12.08.65.7,1,1,1.87,1.88,2.43,3.89,1.69,6.05.45.94-.42,1.95-2.59,3.02-2.54,4.48-5.28,8.77-9.14,12.37l-1.45.07-.48-1.14c2.1-3.38,4.26-6.7,6.48-9.96-1.26.94-2.26.98-3,.11.04-1.84-1.43-.28-1,1-.48,1.21-1,2.43-1.83,3.44-17.12,20.71-32.74,41.55-46.3,64.86-.81,1.05-1.76,1.95-2.86,2.7-.95-.16-1.45.51-1.5,2,.31,2.25-.87,4.25-3,5l-1.06.27c-6.12,9.09-12.15,18.28-18.07,27.57l.14.66.25,1.12c-2.3.37,1.72,3.5,1.93,3.34.8-.61,8.91-13.15,9.94-14.99.16-2.01,1.75-6.16,3.89-5.96,3.3-2.31,3.65.37,1,3-.14.44-.31.43-.5,0-.06-1.42-1.27,1.21-1,2.5l.13,1.12c-1.94,2.81-3.64,5.6-5.13,8.38l.3.6c-2.47,2.72-4.73,5.56-6.76,8.54l.46.86v.5l-2-2c-.96-.29-1.42,1.1-2.19.97-.44-.08-1.4-1.47-2.14-1.89-1.06-.6-2.66-.94-3.44-1.56-1.33-1.07-.71-2.64-3.46-2.55-1.17.04-7.8,2.26-8.5,3.05-2.07,2.32.87,3.2.7,4.17-.12.71-2.31,1.97-2.7,2.83-.36.8-.15,1.98-.49,2.51-.76,1.15-3.93-.05-5.17-.38-18.22-4.88-31.88-32.51-45.63-44.89-.42-.32-.32-.95-.47-1.26-.56-.9-1.23-1.74-2-2.5-2.83-2.27-7-6.84-8.5-10-1.9-2.98-4.1-5.9-7-8-1.28-1.53-2.72-2.95-4-4.5-1.71-2.67-1.46-3.96.77-3.86.99-1.17,1.9-1.39,2.73-.64.91-.84,1.77-.09,1.5,1,.14,1.82.42,3.61.85,5.37,2.56-.17,7.7.37,5.13,3.64-.16,1.16,3.16,8.55,5,8.81l.02,1.17c.1.88.26,1.36.87,2.02.9.96,5.6,5.11,5.86,5.5.45.68.29,1.84.76,2.64.29.49,5.25,5.75,6.24,6.86,2.51,2.81,6.42,5.55,9.02,8.47.89,1,1.43,2.91,2.45,3.55,1.32.83,2.67.15,3.8.7.94.46.86,2.18,2.01,2.99,2.6,1.83,9.69,4.24,12.85,4.65,2.73.36,7.09-.42,9.28.22,1.8.53,5.95,4.57,7.22,4.82,1.59.31,2.25-.81,3.42-.93,1.09-.11,2.07.57,2.96.51,1.62-.12,5.35-.41,6.63-.85,1.81-.62,4.08-6.68,5.1-8.42,1.69-2.88,2.98-5,4.58-7.92.75-1.38,2.96-2.51,3.56-3.94.64-1.52.03-3.37.63-4.37.4-.67,3.49-2.29,4.02-3.52.49-1.14-.64-2.21-.07-3,.32-.44,1.52-.49,2.06-.96,11.02-9.64,23.74-33.11,33.02-45.97,7.76-10.76,18.78-22.57,25.22-33.78,1.02-1.77,2.75-8.31,5.24-8.28.16,0,2.37,1.27,2.75,1.52Z"/>
      <path class="cls-61" d="M249.54,338c.11-1.43-3.34-2.97-1.5-4.27.43-.3,7.97,1,9.5-.24.84-1.22-2.73-1.95.84-4.41,2.53-1.74,6.83-3.2,9.91-2.58,1.57.32,2.02,2.32,4.75.99-.36.53.02,1.36,0,1.5-.13.93-1.59,3.73-2.16,4.34-1.06,1.14-3.49,1.89-4.84,2.66-6.36,2-9.57,2.49-16.5,2Z"/>
      <path class="cls-31" d="M172.05,252.5c1.15-.31,3.08,1.87,2.5,3,0,1.77,4.29,5.51,3.9,6.43-.06.13-.83.3-.9.57-1.29-.51-2.56-.19-4-1.5-1.69-1.55-5.04-9.14-5.5-11.5-.68-1.86-1.08-4.19-.78-6.16.24-1.57.82-5.1,2.25-2.52l1.1,5.59c1.01,2.16,1.49,4.18,1.43,6.09Z"/>
      <path class="cls-35" d="M183.04,257c-1.69.39-1.58,2.22-4,1.5l.5,3c-1.65-2-3.34-4-5-6-.96-1.16-1.5-1.27-2.5-3-.98-2.39.36-3.16,2.18-1.47,1.83,2.53,2.57,3.5,5.78,2.53,1.47.34,3.82,1.91,3.03,3.45Z"/>
      <path class="cls-22" d="M188.04,274l-.5,1h-.5c-1.99-3.8-5.48-6.13-7.78-9.96-.49-.82-1.97-1.51-1.71-2.54,3.75,1.48,7.67,8.22,10.5,11.5Z"/>
      <path class="cls-35" d="M190.54,274c-3.01-2.04-4.72-5.28-7-8,2.76.72,5.61,3.97,6.77,6.5.24.52.11,1.24.23,1.5Z"/>
      <path class="cls-35" d="M201.04,286.5c-.96-.54-1.93-1.31-2-2.5.43.35,1.37.4,1.75,1.01s.14,1.26.25,1.49Z"/>
      <path class="cls-8" d="M176.55,222c.89-.2,2.05-2.15,3.26-2.49,1.59-.46-.24,2.54,1.74,2-.18-.89.13-1.31.5-2-.7,2.23,1.19,6.24,3.35,6.9,1.52.46,5.87-.56,7.9-.62,1.87-.06,4.98.07,6.75.72-3.6-.37-8.42-.06-12,.5-.72.26.88,3.87,1.07,4.01,7.72-.19,5.96,8.86-1.41,8.1l-2.43,1.05c3.71-.16,5.62,4.37,5.77,7.56-1.56,5.4.56,8.71,3.8,12.94l-.3,1.35c-.8.4-3.56-2.18-4.32-3.04-2.85-3.22-3.86-6.89-4.32-11.06-.32-1.56-.94-3.09-2.2-4.13-2.28-.87-4.26-1.9-4.26-4.62-2.77-4.52-4.09-8.91-2.69-14.09-1.4-.7-.86-1.95-.21-3.06Z"/>
      <path class="cls-63" d="M167.55,239.5c-1.08-4.84,7.65-13.21,6.86-3.9.26,2.98,1.07,5.99,2.4,8.64,2.94-1.5,6.57,5.6,7.49,7.9l.58,3.2c1.15,1.69,2.75,4.05-.34,2.66-.57-.48-1.07-.67-1.5-1-.73-.56-1.99-2.23-2.85-2.42-1.26-.28-2.26,1.08-4.34-.14-.92-.54-3.92-5.93-3.8-1.94-2.11-3.65-3.12-7.86-3.5-12-1.76,1.48-.92,6.82-.49,9-.31-.45-.96-2.12-1-2.5-.28-2.57.09-5.01.5-7.5Z"/>
      <path class="cls-46" d="M176.55,222c-.93,1.76,1.46,2.47,1.48,2.74.02.19-1.06,1.74-1.02,3.51.09,4.8,1.29,6.48,3.26,10.28.43.83.13,1.9.74,2.76.66.95,2.46.99,3.31,1.69,3.38,2.75,2.52,7.77,3.86,11.14.98,2.48,4.36,6.08,6.37,7.88l2.2,1.45c3.9,6.17,8.41,11.9,13.53,17.19l.27,1.36,12.99,17.76c.48,1.57-1.49.2-1.99-.26-1.79-.05-5.42-3.8-4.5-5.5l.09-.89c-6.55-8.49-13.76-16.77-21.08-24.76l-.5-1.35c-.84.38-1.79-.88-1-1.5-1.22-2.02-2.61-4.06-4.5-5.5-1.11,1.21-3.17-.6-2.5-2-1.04-1.93-1.87-3.93-2.5-6-1.03.14-2.73-2.89-1.5-3.5-1.17-3.07-2.79-5.66-5.87-7.04-1.71-2.81-2.59-6.13-2.63-9.96-1.49-.08-1.45-1.67,0-2,.9-1.94.65-3.08-.75-3.42l.25-1.08c-.77-1.09.41-2.58,1.5-3,.07.04.4.02.5,0Z"/>
      <path class="cls-1" d="M169.05,233.5l2.84-5.23c1.8-3.72,4.75-2.73,3.16,1.23-.07,1.13-.04.99,0,2,0,3.84.88,7.16,2.63,9.96,3.05,1.33,4.76,4.02,5.87,7.04.48,1.38.89,2.22,1.5,3.5.66,2.06,1.5,4.06,2.5,6,1.14,1.22,1.36,1.16,2.5,2,1.9,1.45,3.28,3.47,4.5,5.5.3.35.5.93,1,1.5.55,1.31,0,1.31-1,.5l-1.48-.1c-2.55-2.82-5.32-5.46-8.33-7.93l-.19-1.47c.25-.1.91.11,1,0,.41-.53-.99-1.71-1.26-2.49-.53-1.54-.37-3.07-1.31-4.69-.54-.93-1.52-1.48-2.13-2.36-.78-1.13-.61-3.21-2.56-3.44-1.31-.15-1.79,1.09-2.83-1.16-.74-1.6-1.59-6.3-1.79-8.21-.13-1.22,1.25-4.34-2.28-3.08-.61.22-.82,1.15-1.39,1.64-.31.26-1.04.18-1.3.42-.18.17-1.02,4.14-1.14,4.87-.2-2.79-.15-3.84,1.5-6Z"/>
      <path class="cls-17" d="M177.55,213.5c-.15,2.38-1.5,2.94-1.51,3.74,0,.49,1.74.36,1.5,1.5s-2.5,1.28-2.24-.74c-.54.83-1.67,1.38-2.25,2-1.13,0-1.81.44-1.41-1.15.59-2.3,3.46-5.07,5.91-5.35Z"/>
      <path class="cls-35" d="M173.55,223.5c.63.19.97.69,1,1.5,1.9,1.48,2.04,2.29.5,4.5.41-6.44-2.51-.08-3.51,1.24-.7.92-1.84,1.91-2.49,2.76.69-3.16,1.93-6.42,3.57-9.2.27-.46.84-.66.93-.8Z"/>
      <path class="cls-1" d="M176.05,222c.23,1.36-.85,1.99-1.5,3-.25-.19-1.43.49-1-1.5.29-.48.41-2.3,1.26-2.5s1.05.91,1.24,1Z"/>
      <path class="cls-69" d="M321.53,258.5c-1.07,2.16-3.57,5.81-5,8-7.06,10.85-14.95,23.11-22.5,33.5-.22,1.04-.97,2.49-2,2-1.15.51-1.61-.07-1.29-1.23,8.56-13.36,17.52-26.74,26.87-40.16l1.92-1.61c-.47-1.64.03-2.31,1.5-2-.82-.59-.54-1.05.5-1,2.38-1.44,1.36,1.22,0,2.5Z"/>
      <path class="cls-29" d="M276.53,327c-1.84.24-1.86-.22-1.12-1.87,1.08-2.41,5.39-6.04,7.12-8.13,2.28-4.7,5.28-8.7,9-12,1.04.31,0,1.49-.29,1.96-3.07,5.11-8.2,10.15-10.46,15.59-.34.83.27,1.71-.18,2.24-.69.8-3.18.91-4.07,2.22Z"/>
      <path class="cls-39" d="M291.53,305c-2.84,4.15-5.81,8.12-9,12-1.03-.32-.02-1.5.29-1.96,1.68-2.52,3.22-4.89,4.71-7.54-.83-.54.34-2.06,1-2.5h.5c.69-1.65,1.69-2.65,3-3,.54-.62,1.39-1.16,2-2,.62,1.12-1.64,3.74-2.5,5Z"/>
      <path class="cls-50" d="M356.02,200.5c.73.62,2.75,2.05,2.95,2.85.25,1.01-2.82,4.63.54,3.15.15.2-.33,1.68-.5,2-2.12,4.11-8.89,9.93-11.42,14.33-4.02,8.51-10.72,15.33-16.3,22.7-3.24,4.28-5.7,9.48-9.78,12.97.17-.35.86-1.68.87-1.77,0-.43-.75-.56-.87-.73-.57-.73-1.06-.16-.5,1-.47.78-1.03,1.33-1.5,2-.38-.58-.91-.25-1.58,1-1.43,2.28-2.92,4.5-4.46,6.71-.19.27-.62.1-.96-.21-.84-1.48-.51-3.23.98-5.27,7.87-10.6,15.69-21.42,23.46-32.46l6.21-6.59,1.34-.18c2.02-2.08,4.49-4.75,6.21-7.04,1.32-1.76,2.55-4.97,3.79-6.21,1.78-1.77,3.57-.66,2.89-4.38-.26-1.42-1.46-2.38-1.39-3.87Z"/>
      <path class="cls-38" d="M320.53,163.5l.6.94c-1.17.95-1.53,1.81-1.1,2.56.36.23.8.32.98.78l-3.98,6.72-1.04,2.73-7.45,9.79c-4.65,7.5-9.65,14.67-15.01,21.48l.02,1.83c-6.12,8.18-11.44,16.72-15.95,25.62-3.69,3.7-6.82,7.72-9.39,12.07-.85.82-3.79,2.35-4.68,1.49,2.17-2.55,4.67-4.94,6.42-7.83.64-1.05.67-2.39,1.2-3.3,1.89-3.27,6.16-6.98,3.88-10.87.33-1.07.72-2.11,1.31-3.01,13.53-20.86,28.4-43.08,43.69-61.49.2.11.35.33.5.5Z"/>
      <path class="cls-65" d="M327.53,164c.14.15.2.45.5.5.39,1.14-.6,1.98-1.5,2.5-.48,1.34-1,2.71-1.86,3.86-7.19,9.58-14.31,19.17-21.44,28.79-.86,1.15-2.04,2.02-3.19,2.85-2.13,2.3-4.1,4.66-5.9,7.08l-.6-1.08c7.41-11.64,14.34-23.68,23.5-34,4.22-.71,2.3-2.16,3.06-3.43.2-.33,1.81-.41,1.93-.59.24-.34-.52-1.64-.29-2.5.21-.77,1.1-1.33,1.5-2.02,1.38-2.41-.07-3.06,4.29-1.96Z"/>
      <path class="cls-13" d="M320.03,163c-.6,1.51-1.81,3.15-2.79,4.46-14.84,19.87-28.29,39.54-42.2,60.04-3.24,4.78-6.34,9.69-9.57,14.48-.35.25-.83-.48-.92-.48.45-1.46,1.64-2.71,2.5-4l.67-2.19c13.94-23.03,29.12-45.17,45.53-66.44l1.8-1.37c.7-.86,4.28-5.09,4.75-5,.19.04.18.46.25.5Z"/>
      <path class="cls-15" d="M315.03,167.5c-17.49,21.49-32.5,46.95-47.99,70-1.52.17-1.07-.39-.6-1.35,2.23-4.55,7.19-11.5,10.1-16.15,10.27-16.41,23.87-37.09,36.51-51.74.24-.28,2.31-2.96,1.99-.76Z"/>
      <path class="cls-65" d="M320.53,163.5c.4-.46,1.79-.22,2.2,0,1.39.75-2.51,2.12-2.7,3.49-.34-.22-1.21.54-1.01-.76.02-.15,1.41-2.62,1.51-2.74Z"/>
      <path class="cls-24" d="M388.02,90c1.83-1.54-1.46-.23-1-1.99,2.4-.12,5.08-2.14,7.28-2.47,2.99-.46,14.91.74,16.21,3.72-3.06,1.08-1.85.81-.5,2.25.32.34.62.47,1,1s.94,1.07.96,1.73c.11,3.4-2.35.59-3.16.8-.24.06-2.07,2.58-3.79,3.22-3.18,1.18-8.95.7-12.13-.37-1.25-.42-1.66-2.14-3.14-2.39-2.25-.38-3.92,2.01-6.2.22-1.56-1.23.32-1.21.97-1.95.69-.79,1.27-1.95,2-2.77.5-.38,1.17-.73,1.5-1Z"/>
      <path class="cls-21" d="M373.02,101.5c1.06-.12,1.12-.06,1,1-3.51,3.04-6.73,6.45-10.01,9.74-1.65,1.65-2.87,4.17-5.49,4.76,4.43-5.51,9.14-10.86,14.5-15.5Z"/>
      <path class="cls-75" d="M300.03,202.5l-.46,1.85c-8.69,15.35-18.14,29.74-28.34,43.18l-.7-.04c-3.62,3.16-7.02,2.98-10.5,4.5-1.28-1.33,2.01-1.85,3.5-2.5,5.87-2.59,2.91-1.63,5.99-5.76,2.09-2.81,6.08-6.35,8.01-9.49,2.22-3.61,2.54-6.72,5.72-10.78,3.39-4.32,7.18-10.13,10.27-14.98,1.5.27,1.21-.07,1.77-.97,1.2-1.89,2.2-4.39,4.73-5.03Z"/>
      <path class="cls-72" d="M190.04,207.5c3.44-.29,10.37-.65,13.53.21,2,.54,8.7,4.24,9.46,6.04.42,1-.69.73-1.25.76-1.69.09-3.03-.56-4.47-.53-3.89.09-5.03,2.08-9.89-.11-2.41-1.08-3.81-4.35-6.88-2.37-4.11.19-6.86,1.93-2.5-3.5.78-.26,1.1-.42,2-.5Z"/>
      <path class="cls-54" d="M188.04,227c-.29,1.32.69.95,1.46,1.27,1.36.56,7.4,2.44,7.42,3.97,0,.22-.96,1.08-.92,2.49.09,3.62,4.12,2.54-1.77,6.7-.92.65-3.21.67-3.19,2.31.01.8,1.27,1.71,1.48,3.03.37,2.29-.2,6.83.23,8.72.46,2.02,4.29,5.28,5.04,7.01,1.08,2.47,1.4,4.52,3.49,7.01,2.91,3.47,6.14,6.95,9.28,10.22.51.53.53,1.58,1.22,2.28.63.65,4.17,2.18,4.96,1.94,2.58-2.8-.23-3.43-1.2-4.7-.8-1.05-1.08-2.47-2.22-3.28s-3.05-.77-3.8-1.7-.53-2.92-1.21-3.82c-.43-.57-1.33.11-1.75-.18-1.16-.81.38-2.87,0-3.28-.15-.16-3.4-.3-3.43-2.26,0-.34,6-4.16-.08-3.75v-1.5c3.69-.63,3.12,3.32,6,3.5,10.06,13.01,21.97,28.48,34.02,39.73,4.48,4.18,9.59,5.31,14.98,7.01,3.03.96,3.54,4.47,6.71.23,2.14-2.86,10.78-16.02,10.83-18.72.02-.97-.57-2.53-.47-2.96.23-.97,3.37-1.27,1.92-4.29,1.33.72,1.77,3.3,3.26,1,.93-1.43-.85-2.82-.54-3.51.09-.19,2.62-3.13,2.8-3.25.48-.31,1.27.13,1.84-.11.41-.17,3.46-4.62,3.56-5,.21-.77-.36-1.58-.16-2.16.55-1.54,7.08-8.64,8.73-10.97-.74.78-.08,3.35-.22,3.53-.32.43-1.51.5-2.05.96-2.66,2.23-8.2,13.02-10.31,16.68-2.83,4.9-6.32,10.06-8.63,15.37-.17.39-1.18,3.14-1.21,3.32-.14.86,2.15,1.59,1.32,4.28-.23.73-1.2,1.22-1.51,1.99-2.25,5.64-2.46,11.3-10.14,11.4-.52,0-6.07-.53-6.37-.62-.89-.26-1.5-1.63-2.5-2.05-1.06-.44-2.23-.18-2.99-.51-1.84-.78-2.98-2.18-5.36-2.64-1.9-.36-7.14.4-7.45.2-.18-.12-.44-1.6-1.04-2.21-.79-.81-2.82-1.04-3.3-2.23-.42-1.06,1.52-3.32-2.5-3.29-.59,0-1.06.73-1.78.58-2.87-.61-12.42-14.46-14.97-17.52-1.5-1.81-3.63-3.63-4.99-5.26-5.42-6.51-11.26-12.83-16-20-.84-1.28-1.89-2.73-2.72-4.03-3.93-6.22-1.74-5.17-1.77-11.23,0-.97-1.83-4.35-2.54-4.98-1.14-1.01-3.26-.05-3.97-1.51-.41-.85.6-.8,1.01-.96.83-.33,2.15-.93,2.88-1.14,2.35-.68,6.02.36,5.51-3.75-.47-3.81-2.98-1.66-4.43-2.62-.53-.35-.67-2.02-1.23-2.78-.62-.84-1.64-.89-1.74-1-1.19-1.32,2.09-.93,2.5-.99Z"/>
      <path class="cls-12" d="M327.03,184.5c-16.81,21.94-30.74,46.72-47.28,68.46-3.1,4.07-9.74,11.31-14.21,13.54-1.87.94-4.02,1.35-6,2-1.8.14-2.86.08-4.5-.5,2.38-.03,3.47-2.69,5.33-3.92,3.71-2.45,2.71-.98,5.89-4.61,5.94-6.75,11.64-13.66,16.7-21.3,1.16-1.75.69-2.79,2.82-4.68,5.98-5.31,8.09-10.42,13.02-16.47,1.36-1.67,4.08-3.55,5.44-5.56,1.58-2.34,2.35-5.98,3.88-8.62,2.48-4.3,7.73-10.93,10.9-15.09,1.5-1.97,6.24-7.01,8-3.25Z"/>
      <path class="cls-12" d="M337.52,171.5c-1.82,2.92-4.35,5.34-6.5,8-2.56-2.03,1.18-5.43.94-7.13-.18-1.25-2.15-2.48-2.44-3.87,3.66-.01,5.44.28,8,3Z"/>
      <path class="cls-54" d="M194.54,267.5c.58.2,1.12.44,1.49.83,7.03,7.51,14.35,15.75,20.47,23.99.33.45.46,1.04.53,1.68,1.26,1.5,3.27,4.36,4.5,5.5.12,1.59-.25,1.12-1.25.5-4.93-3.08-12.62-9.37-15.76-14.24-.52-.81-.41-2.01-.99-2.51-.48-.42-1.68-.4-2.48-1.02-1.44-1.11-3.57-3.63-5.52-5.23-.52-.43-1.36-.51-2.01-1.24-1.25-1.37-4-7.28-4.04-9.04-.03-1.03,1.52-.53,1.05-1.47-.75-1.5-4.92-.18-6.43-1.33.44-1.77-1.45-5.16.43-5.93,3.15,2.63,7.16,6.51,10,9.5Z"/>
      <path class="cls-70" d="M377.02,109.5c1.52-.12,1.13.2.49,1.24-2.61,4.28-6.11,9.76-11.09,11.41-.95.31-1.6.89-1.4-.66,3.96-3.74,8.09-8.1,12-12Z"/>
      <path class="cls-12" d="M328.03,164.5c.45-.34.91-.58,1.5-.5.2.16-3.06,3.68-.5,4.5-.33,0-.67,0-1,0-1.9.67-1.46-1.93-.5-2,.11,0-.15,2.01-.99.5.35-.42.7-1.9,1.5-2.5Z"/>
      <path class="cls-20" d="M328.03,168.5c.31,2.34-.13,6.67-1.47,8.65-.09.14-2.25,2.27-2.39,2.37-3.27,2.47-5.86,3.5-8.64,7.22-9.66,12.92-19.52,25.83-28.71,39.29-5.4,7.9-9.2,15.35-15.78,22.47l-.5-1c1.81-1.58,4.92-6.17,6.4-8.34,8.02-11.72,14.97-24.86,23.09-36.66s17.24-24.3,26.5-35.5l.99-.5c-.33.8.46,1.63.5,2Z"/>
      <path class="cls-29" d="M344.52,222c-1.95,3.06-5.26,5.22-7.35,8.15-4.72,6.65-9.65,12.97-13.95,19.8-3.46,5.5-9.27,9.78-10.7,16.55-.06,3.77-4.39,7.24-7.46,9.5-5.89,7.9-11.05,16.31-15.47,25.21-.15.18-1.24.87-1.57.79-1.08,1.98-2.83,3.44-2.96,6.29l-10.53,15.97c-1.16.95-1.05-.68-1.72-1.28-2.35-2.11-4.09-1.63-.79-4.48,1.16-2.41,2.8-4.7,4.93-6.87,4.48-7.03,8.85-14.14,13.09-21.31l.98-.32c1.02-1.65,1.98-3.36,3-5-.23-.93.53-2.46,1.5-2,15.02-24.13,31.59-50.52,50.99-71-.51-.97.02-1.5,1-1,1.37-.13,2.47-1.16,3.67-1.59,2.56-.91.12,1.92-.27,2.74-1.55,3.28-1.27,2.08-3.11,4.38-1.5,1.87-2.13,3.65-3.29,5.46Z"/>
      <path class="cls-28" d="M312.53,266.5c.15-.21.83-.48,1.21-1.02,1.32-1.85,3.12-5.72,4.53-6.99.87-.79,1.44-.86,1.26.51-6.41,9.23-12.34,18.82-18.58,28.17-2.85,4.27-6.2,8.25-8.68,12.82-.26.48-1.21,1.73-.24,2.02-.07.08.09.6-.15.84-.29.29-2.67,2.13-2.85,2.16l.99-3.5c-.17-.22-1.72,1.84-1.99.5,2.91-5.36,13.12-24.62,17.24-27.5,5.03-3.52,3.85-3.26,7.25-8Z"/>
      <path class="cls-57" d="M272.03,318.5c-1.61.13-1.02-.27-.51-1.26,1.51-2.97,3.73-5.81,5.09-8.91l13.41-19.59,1.01,1.26c-5.81,9.41-10.79,21.42-19,28.5Z"/>
      <path class="cls-37" d="M249.42,325.88c-1.11,1.03-6.22.77-7.75.23-2.14-.76-7.63-5.74-5.92-8.15.87-1.22,6.55.21,7.77.8.99.48,1.3,1.86,2.05,2.45,1.06.82,5.95,2.72,3.85,4.67Z"/>
      <path class="cls-50" d="M347.52,211c-.33.34-.69.67-1,1l-1.49-.24c2.32-3.08,3.05-6.9,5.8-9.71,4.21-4.31,5.45.36,2.72,3.72-1.39,1.71-4.1,3.23-6.02,5.23Z"/>
      <path class="cls-29" d="M288.53,305c.29,1.27-.59,1.76-1,2.5-2.3.28-.18-2.45.75-3.5l.25,1Z"/>
      <path class="cls-57" d="M294.03,285c-1.54-1.19,1.67-4.71,1.5-2-.44.71-1.06,1.29-1.5,2Z"/>
      <path class="cls-35" d="M195.54,267c7.09,8,14.93,15.77,21.2,24.55.31.43,2.51,2.73.3,2.45-7.32-8.7-14.71-18.28-22.5-26.5l1-.5Z"/>
      <path class="cls-35" d="M183.54,248.5c-1.25-1.15-2.68-4.57-3.76-5.49-.91-.78-2.16-.28-2.97-1.53-1.93-2.96-1.62-6.71-1.77-9.98,1.22,1.72.69,4.28,1.12,6.13.91,3.97,4.53,4.43,6.61,7.89.86,1.44.46,2.08.77,2.98Z"/>
      <path class="cls-35" d="M187.54,258c-1.66-1.79-2.79-3.37-2.5-6,.87,1.83,2.83,3.65,2.5,6Z"/>
      <path class="cls-35" d="M194.54,265.5c-1.53-1.8-3.21-3.49-4.5-5.5.23.17.82.1,1.5.73.96.88,2.74,3.43,3,4.77Z"/>
      <path class="cls-28" d="M321.03,257c-2.23.43-.46-2.75.5-2,.13.1-.11.84,0,1-.18.32-.31.68-.5,1Z"/>
      <path class="cls-71" d="M395.4,86.63c4.46-.58,5.97,1.03,9.42,2.81,1.21.62,4.05.56,3.49,2.58-.31,1.1-1.26,1.52-2.27,1.77-1.25.31-5.89.72-7.31.73-1.85.02-3.35-.69-5.05-.84s-2.68.76-4.96-.15c-3.98-1.59.44-3.1,2.24-4.33s1.64-2.21,4.43-2.58Z"/>
    </g>
  </g>
</svg>