<?xml version="1.0" encoding="UTF-8"?>
<svg id="Layer_2" data-name="Layer 2" xmlns="http://www.w3.org/2000/svg" viewBox="0 0 314.77 171.01">
  <defs>
    <style>
      .cls-1 {
        fill: #fefefe;
      }
    </style>
  </defs>
  <g id="Layer_1-2" data-name="Layer 1">
    <path class="cls-1" d="M254.12,34.17c2.59,1.44,1.88,2.58-.04,4.21.83.64,1.87.99,3.12,1.05l.55,1.08c1.62-1.59,3.58-1.03,5.86,1.67.13-.42.29-.41.5,0,.94-.48,1.38.03,1,1,.44.14.86.32,1.15.61,6.07,6.03,15.09,15.29,19.69,22.25.93,1.4,1.93,3.04,2.16,4.64,1.88.82,2.55,1.98,2,3.5.54,1.19,1.3,2.11,2.29,2.77-1.02,3.71,0,5.69,3.05,5.96l.16.77.46,1.16c2.44.31,2.68,1.52,2.54,3.84,3.65,6.09,6.72,13.99,9.02,20.73,3.67,10.77,9.08,30.07,6.42,40.97-6.45,26.42-41.19,27.81-48.8.92-1.78-6.28-2.87-13.09-4.64-19.61-1.49-.07-1.82-1.88-.5-2.5,1.91-4.93,2.13-6.39.65-4.38l-.8-.04-.71-4.51c-1.63,0-2.92-1.33-3.65-2.57-1.64-.97-4.34-5.2-3.5-7l-1.7-1.17c-3.22-6.29-6.63-12.88-11.69-17.75l-.1-1.08c-4.31-4.34-8.74-8.54-13.29-12.62l-.71-1.88-.51-.98c5.08-6.51,10.16-13.21,15.12-19.81.71-.94-14.64,16.01-15.36,17.76-.71.93-1.63.94-2.75.02-.93-.17-9.27-6.37-11.24-7.51-64.09-36.97-145.14,1.9-160.11,72.88-2.57,12.18-1.24,20.47-12.38,29.12-4.9,3.8-13.91,3.62-19.98,3-5.44-.56-13.03-7.92-15.19-12.81-7.03-15.87,4.23-49.2,11.34-64.52C56.89.02,172.24-30.1,254.12,34.17Z"/>
  </g>
</svg>